<?xml version="1.0" encoding="UTF-8"?> <!-- Generator: Adobe Illustrator 25.3.1, SVG Export Plug-In . SVG Version: 6.00 Build 0) --> <svg xmlns="http://www.w3.org/2000/svg" xmlns:xlink="http://www.w3.org/1999/xlink" id="Layer_1" x="0px" y="0px" viewBox="0 0 150 150" style="enable-background:new 0 0 150 150;" xml:space="preserve"> <style type="text/css"> .st0{fill:#A40707;} .st1{fill:#590D0E;} </style> <g> <path class="st0" d="M69.5,102.9c-1.1-3.3-2.2-6.7-3.4-9.9c-0.9-2.5-2.1-5.3-5.2-5.5c-3.1-0.2-4.5,2.5-5.4,5 c-2.7,6.9-5.1,14-8,20.8c-1.3,3.1-2,6.6-4.9,9.2c0.4-3.4,0.8-6.8,1.2-10.1c2.8-20.1,5.6-40.2,8.5-60.3c0-0.4,0.3-0.9,0.5-1.3 c3.6-1.3,5.8-0.5,7.7,2.7C64,59,65,65.2,66.1,71.3c0.8,4.1,1.7,8.2,4.1,11.7c1.1,1.6,2.7,3,4.8,1.4c1.7-1.3,3.2-3,3.4-5.4l0,0 c0.7,0.1,0.8-0.3,0.9-0.9c2.9-4.3,4-9.5,6.9-13.8c0.5-0.2,0.5-0.7,0.6-1.2l0,0c0.1-0.2,0.3-0.5,0.5-0.8v0.1h-0.1 c0.7-0.1,0.8-0.6,0.7-1.2l0,0c0.9,0.2,1.6-0.3,2.4-0.7c3.4-2.2,5.7-2.1,8.8,0.3c0.1,0.1,0.2,0.3,0.2,0.5c0,0-0.1,0.1-0.1,0.2 c0.1,0.3,0.2,0.6,0.3,0.9c1.2,8.7,2.3,17.4,3.5,26.1c1.5,10.8,3.1,21.7,4.6,32.5c0,0.5,0,1,0,1.6c-2-0.5-2.6-2.1-3.3-3.7 c-2.9-6.8-4.3-14-5.8-21.2c0-4.2-1-8.1-3.3-11.6c-2.4-3.7-5.7-3.9-8.8-1c-2.2,2-3,4.8-4.3,7.3c-1.9,4-2.5,8.6-5.1,12.3 c-1.7,2.4-3.5,2.5-5.6,0.3c-0.3-0.3-0.7-0.6-1.1-0.9h0C70.1,103.9,70.2,103.2,69.5,102.9z"></path> <path class="st1" d="M78.5,79.1c-0.3,2.4-1.7,4-3.4,5.4c-2.1,1.6-3.6,0.2-4.8-1.4c-2.5-3.5-3.4-7.6-4.1-11.7 C65,65.1,64,58.9,60.6,53.4c-2-3.2-4.1-4-7.7-2.7c0.3-2.5,1.1-4.8,3.8-5.4c2.7-0.6,4.5,1.1,5.8,3.2c2,3,2.7,6.5,3.6,9.9 c1.3,5.2,2.1,10.7,4.4,15.6c0.5,1.1,1.2,2.2,1.8,3.2C74,79.6,75.9,80.5,78.5,79.1z"></path> <path class="st1" d="M70,104.5c0.3,0.3,0.7,0.6,1.1,0.9c2.1,2.2,3.9,2.2,5.6-0.3c2.6-3.7,3.2-8.3,5.1-12.3c1.2-2.5,2.1-5.3,4.3-7.3 c3.2-3,6.4-2.7,8.8,1c2.3,3.5,3.3,7.4,3.3,11.6c-0.9-2-1.6-4.1-2.6-6c-2.4-4.5-6.9-4.7-9.9-0.7c-2.3,3.1-3.3,6.9-4.7,10.4 c-1,2.6-1.8,5.4-3.4,7.8c-1.9,2.7-4.5,2.6-6-0.3C70.8,107.8,70,106.2,70,104.5z"></path> <path class="st0" d="M50.2,35.1c-0.4-3.2,1-5.5,3.7-7c2.6-1.5,5.4-1.2,7.7,0.7c2.4,2,3.4,4.5,2.4,7.6c-0.2,0-0.4-0.2-0.5-0.1 C58,40.8,56,40.7,51,35.6C50.8,35.3,50.5,35.2,50.2,35.1z"></path> <path class="st0" d="M87.3,42.4c0.6-3.2,2.9-4.6,5.8-4.9c3-0.3,5.6,0.7,6.9,3.8c1.3,3-0.1,5.1-2.4,6.9c-2,1.5-4.4,1.7-6.4,0.6 C88.9,47.5,86.9,45.6,87.3,42.4z"></path> <path class="st1" d="M87.3,42.4c-0.5,3.2,1.6,5.1,3.9,6.3c2,1.1,4.4,0.9,6.4-0.6c2.3-1.7,3.7-3.8,2.4-6.9c1.6,3.4,1,6.6-1.5,8.7 c-2.3,1.9-6.3,2.1-8.7,0.4C87.2,48.5,86.3,45.6,87.3,42.4z"></path> <path class="st1" d="M98.8,61.1c-3-2.5-5.4-2.5-8.8-0.3c-0.7,0.4-1.4,0.9-2.4,0.7c0.3-1.2,1.1-2.2,1.9-3.1c1.5-1.8,3.2-3.4,5.8-2.6 C97.9,56.5,98.7,58.7,98.8,61.1z"></path> <path class="st1" d="M50.2,35.1c0.3,0.1,0.6,0.1,0.8,0.3c5,5.1,7.1,5.2,12.4,0.7c0.1,0,0.3,0.1,0.5,0.1c-1.3,3.6-3.9,5.4-7.2,5.2 C53.3,41.2,51,38.9,50.2,35.1z"></path> <path class="st1" d="M69.5,102.9c0.7,0.3,0.6,0.9,0.6,1.5C69.5,104.1,69.5,103.5,69.5,102.9z"></path> <path class="st1" d="M87.8,61.4c0.1,0.6,0,1.1-0.7,1.2C87.2,62.2,87.3,61.7,87.8,61.4z"></path> <path class="st1" d="M86.8,63.3c0,0.4-0.1,0.9-0.6,1.2C86.2,64,86.3,63.5,86.8,63.3z"></path> <path class="st1" d="M79.3,78.3c-0.1,0.5-0.2,1-0.9,0.9C78.7,78.8,79,78.5,79.3,78.3z"></path> <path class="st1" d="M99.2,62.7c-0.1-0.3-0.2-0.6-0.3-0.9C99.3,62,99.3,62.3,99.2,62.7z"></path> <path class="st1" d="M87.2,62.5c-0.1,0.2-0.3 ,0.5-0.5,0.8C86.9,63,87,62.8,87.2,62.5z"></path> </g> </svg> 